<mxfile host="app.diagrams.net" modified="2023-07-10T20:01:22.011Z" agent="Mozilla/5.0 (Macintosh; Intel Mac OS X 10_15_7) AppleWebKit/537.36 (KHTML, like Gecko) Chrome/114.0.0.0 Safari/537.36" etag="D-orW0eRCzYoHv4eQM5e" version="21.6.1" type="github">
  <diagram name="Page-1" id="K5Yx-MWFr-CgtCz-KE08">
    <mxGraphModel dx="1434" dy="771" grid="1" gridSize="10" guides="1" tooltips="1" connect="1" arrows="1" fold="1" page="1" pageScale="1" pageWidth="827" pageHeight="1169" math="0" shadow="0">
      <root>
        <mxCell id="0" />
        <mxCell id="1" parent="0" />
        <mxCell id="2gF3RtqNhWru5DEZii_x-1" value="AWS Cloud" style="points=[[0,0],[0.25,0],[0.5,0],[0.75,0],[1,0],[1,0.25],[1,0.5],[1,0.75],[1,1],[0.75,1],[0.5,1],[0.25,1],[0,1],[0,0.75],[0,0.5],[0,0.25]];outlineConnect=0;gradientColor=none;html=1;whiteSpace=wrap;fontSize=12;fontStyle=0;container=1;pointerEvents=0;collapsible=0;recursiveResize=0;shape=mxgraph.aws4.group;grIcon=mxgraph.aws4.group_aws_cloud_alt;strokeColor=#232F3E;fillColor=none;verticalAlign=top;align=left;spacingLeft=30;fontColor=#232F3E;dashed=0;" parent="1" vertex="1">
          <mxGeometry x="90" y="120" width="698" height="590" as="geometry" />
        </mxCell>
        <mxCell id="2gF3RtqNhWru5DEZii_x-2" value="us-east-1" style="points=[[0,0],[0.25,0],[0.5,0],[0.75,0],[1,0],[1,0.25],[1,0.5],[1,0.75],[1,1],[0.75,1],[0.5,1],[0.25,1],[0,1],[0,0.75],[0,0.5],[0,0.25]];outlineConnect=0;gradientColor=none;html=1;whiteSpace=wrap;fontSize=12;fontStyle=0;container=1;pointerEvents=0;collapsible=0;recursiveResize=0;shape=mxgraph.aws4.group;grIcon=mxgraph.aws4.group_region;strokeColor=#147EBA;fillColor=none;verticalAlign=top;align=left;spacingLeft=30;fontColor=#147EBA;dashed=1;" parent="2gF3RtqNhWru5DEZii_x-1" vertex="1">
          <mxGeometry x="30" y="50" width="540" height="490" as="geometry" />
        </mxCell>
        <mxCell id="2gF3RtqNhWru5DEZii_x-4" value="Original VPC" style="points=[[0,0],[0.25,0],[0.5,0],[0.75,0],[1,0],[1,0.25],[1,0.5],[1,0.75],[1,1],[0.75,1],[0.5,1],[0.25,1],[0,1],[0,0.75],[0,0.5],[0,0.25]];outlineConnect=0;gradientColor=none;html=1;whiteSpace=wrap;fontSize=12;fontStyle=0;container=1;pointerEvents=0;collapsible=0;recursiveResize=0;shape=mxgraph.aws4.group;grIcon=mxgraph.aws4.group_vpc;strokeColor=#248814;fillColor=none;verticalAlign=top;align=left;spacingLeft=30;fontColor=#AAB7B8;dashed=0;" parent="2gF3RtqNhWru5DEZii_x-2" vertex="1">
          <mxGeometry x="69" y="45" width="460" height="420" as="geometry" />
        </mxCell>
        <mxCell id="2gF3RtqNhWru5DEZii_x-3" value="us-east-1a" style="fillColor=none;strokeColor=#147EBA;dashed=1;verticalAlign=top;fontStyle=0;fontColor=#147EBA;whiteSpace=wrap;html=1;" parent="2gF3RtqNhWru5DEZii_x-4" vertex="1">
          <mxGeometry x="40" y="55" width="210" height="165" as="geometry" />
        </mxCell>
        <mxCell id="2gF3RtqNhWru5DEZii_x-5" value="Private subnet" style="points=[[0,0],[0.25,0],[0.5,0],[0.75,0],[1,0],[1,0.25],[1,0.5],[1,0.75],[1,1],[0.75,1],[0.5,1],[0.25,1],[0,1],[0,0.75],[0,0.5],[0,0.25]];outlineConnect=0;gradientColor=none;html=1;whiteSpace=wrap;fontSize=12;fontStyle=0;container=1;pointerEvents=0;collapsible=0;recursiveResize=0;shape=mxgraph.aws4.group;grIcon=mxgraph.aws4.group_security_group;grStroke=0;strokeColor=#147EBA;fillColor=#E6F2F8;verticalAlign=top;align=left;spacingLeft=30;fontColor=#147EBA;dashed=0;" parent="2gF3RtqNhWru5DEZii_x-4" vertex="1">
          <mxGeometry x="70" y="85" width="130" height="130" as="geometry" />
        </mxCell>
        <mxCell id="-BmIKPM9cMF7o1BWzEVZ-7" value="" style="sketch=0;points=[[0,0,0],[0.25,0,0],[0.5,0,0],[0.75,0,0],[1,0,0],[0,1,0],[0.25,1,0],[0.5,1,0],[0.75,1,0],[1,1,0],[0,0.25,0],[0,0.5,0],[0,0.75,0],[1,0.25,0],[1,0.5,0],[1,0.75,0]];outlineConnect=0;fontColor=#232F3E;gradientColor=#F78E04;gradientDirection=north;fillColor=#D05C17;strokeColor=#ffffff;dashed=0;verticalLabelPosition=bottom;verticalAlign=top;align=center;html=1;fontSize=12;fontStyle=0;aspect=fixed;shape=mxgraph.aws4.resourceIcon;resIcon=mxgraph.aws4.ec2;" vertex="1" parent="2gF3RtqNhWru5DEZii_x-5">
          <mxGeometry x="26" y="40" width="78" height="78" as="geometry" />
        </mxCell>
        <mxCell id="-BmIKPM9cMF7o1BWzEVZ-9" value="us-east-1b" style="fillColor=none;strokeColor=#147EBA;dashed=1;verticalAlign=top;fontStyle=0;fontColor=#147EBA;whiteSpace=wrap;html=1;" vertex="1" parent="2gF3RtqNhWru5DEZii_x-4">
          <mxGeometry x="40" y="230" width="210" height="170" as="geometry" />
        </mxCell>
        <mxCell id="-BmIKPM9cMF7o1BWzEVZ-6" value="Private subnet" style="points=[[0,0],[0.25,0],[0.5,0],[0.75,0],[1,0],[1,0.25],[1,0.5],[1,0.75],[1,1],[0.75,1],[0.5,1],[0.25,1],[0,1],[0,0.75],[0,0.5],[0,0.25]];outlineConnect=0;gradientColor=none;html=1;whiteSpace=wrap;fontSize=12;fontStyle=0;container=1;pointerEvents=0;collapsible=0;recursiveResize=0;shape=mxgraph.aws4.group;grIcon=mxgraph.aws4.group_security_group;grStroke=0;strokeColor=#147EBA;fillColor=#E6F2F8;verticalAlign=top;align=left;spacingLeft=30;fontColor=#147EBA;dashed=0;" vertex="1" parent="2gF3RtqNhWru5DEZii_x-4">
          <mxGeometry x="70" y="256" width="130" height="130" as="geometry" />
        </mxCell>
        <mxCell id="-BmIKPM9cMF7o1BWzEVZ-8" value="" style="sketch=0;points=[[0,0,0],[0.25,0,0],[0.5,0,0],[0.75,0,0],[1,0,0],[0,1,0],[0.25,1,0],[0.5,1,0],[0.75,1,0],[1,1,0],[0,0.25,0],[0,0.5,0],[0,0.75,0],[1,0.25,0],[1,0.5,0],[1,0.75,0]];outlineConnect=0;fontColor=#232F3E;gradientColor=#F78E04;gradientDirection=north;fillColor=#D05C17;strokeColor=#ffffff;dashed=0;verticalLabelPosition=bottom;verticalAlign=top;align=center;html=1;fontSize=12;fontStyle=0;aspect=fixed;shape=mxgraph.aws4.resourceIcon;resIcon=mxgraph.aws4.ec2;" vertex="1" parent="-BmIKPM9cMF7o1BWzEVZ-6">
          <mxGeometry x="26" y="28" width="78" height="78" as="geometry" />
        </mxCell>
        <mxCell id="-BmIKPM9cMF7o1BWzEVZ-16" value="Auto Scaling group" style="points=[[0,0],[0.25,0],[0.5,0],[0.75,0],[1,0],[1,0.25],[1,0.5],[1,0.75],[1,1],[0.75,1],[0.5,1],[0.25,1],[0,1],[0,0.75],[0,0.5],[0,0.25]];outlineConnect=0;gradientColor=none;html=1;whiteSpace=wrap;fontSize=12;fontStyle=0;container=1;pointerEvents=0;collapsible=0;recursiveResize=0;shape=mxgraph.aws4.groupCenter;grIcon=mxgraph.aws4.group_auto_scaling_group;grStroke=1;strokeColor=#D86613;fillColor=none;verticalAlign=top;align=center;fontColor=#D86613;dashed=1;spacingTop=25;" vertex="1" parent="2gF3RtqNhWru5DEZii_x-4">
          <mxGeometry x="21" y="45" width="269" height="365" as="geometry" />
        </mxCell>
        <mxCell id="-BmIKPM9cMF7o1BWzEVZ-12" value="" style="sketch=0;outlineConnect=0;fontColor=#232F3E;gradientColor=none;fillColor=#3F8624;strokeColor=none;dashed=0;verticalLabelPosition=bottom;verticalAlign=top;align=center;html=1;fontSize=12;fontStyle=0;aspect=fixed;pointerEvents=1;shape=mxgraph.aws4.bucket;" vertex="1" parent="2gF3RtqNhWru5DEZii_x-2">
          <mxGeometry x="-10" y="200" width="55" height="57.2" as="geometry" />
        </mxCell>
        <mxCell id="-BmIKPM9cMF7o1BWzEVZ-13" style="edgeStyle=orthogonalEdgeStyle;rounded=0;orthogonalLoop=1;jettySize=auto;html=1;exitX=0;exitY=0.5;exitDx=0;exitDy=0;" edge="1" parent="2gF3RtqNhWru5DEZii_x-2" source="-BmIKPM9cMF7o1BWzEVZ-16">
          <mxGeometry relative="1" as="geometry">
            <mxPoint x="18" y="250" as="targetPoint" />
            <Array as="points">
              <mxPoint x="68" y="273" />
              <mxPoint x="68" y="260" />
            </Array>
          </mxGeometry>
        </mxCell>
        <mxCell id="-BmIKPM9cMF7o1BWzEVZ-15" value="" style="sketch=0;outlineConnect=0;fontColor=#232F3E;gradientColor=none;fillColor=#BF0816;strokeColor=none;dashed=0;verticalLabelPosition=bottom;verticalAlign=top;align=center;html=1;fontSize=12;fontStyle=0;aspect=fixed;pointerEvents=1;shape=mxgraph.aws4.role;" vertex="1" parent="2gF3RtqNhWru5DEZii_x-2">
          <mxGeometry x="15.82" y="257.2" width="53.18" height="30" as="geometry" />
        </mxCell>
        <mxCell id="-BmIKPM9cMF7o1BWzEVZ-2" value="" style="sketch=0;outlineConnect=0;fontColor=#232F3E;gradientColor=none;fillColor=#4D27AA;strokeColor=none;dashed=0;verticalLabelPosition=bottom;verticalAlign=top;align=center;html=1;fontSize=12;fontStyle=0;aspect=fixed;pointerEvents=1;shape=mxgraph.aws4.vpn_gateway;" vertex="1" parent="2gF3RtqNhWru5DEZii_x-1">
          <mxGeometry x="659" y="270" width="78" height="78" as="geometry" />
        </mxCell>
        <mxCell id="-BmIKPM9cMF7o1BWzEVZ-21" style="edgeStyle=orthogonalEdgeStyle;rounded=0;orthogonalLoop=1;jettySize=auto;html=1;" edge="1" parent="1" source="-BmIKPM9cMF7o1BWzEVZ-17" target="-BmIKPM9cMF7o1BWzEVZ-2">
          <mxGeometry relative="1" as="geometry" />
        </mxCell>
        <mxCell id="-BmIKPM9cMF7o1BWzEVZ-23" style="edgeStyle=orthogonalEdgeStyle;rounded=0;orthogonalLoop=1;jettySize=auto;html=1;" edge="1" parent="1" source="-BmIKPM9cMF7o1BWzEVZ-17" target="-BmIKPM9cMF7o1BWzEVZ-18">
          <mxGeometry relative="1" as="geometry" />
        </mxCell>
        <mxCell id="-BmIKPM9cMF7o1BWzEVZ-17" value="" style="sketch=0;outlineConnect=0;fontColor=#232F3E;gradientColor=none;fillColor=#4D27AA;strokeColor=none;dashed=0;verticalLabelPosition=bottom;verticalAlign=top;align=center;html=1;fontSize=12;fontStyle=0;aspect=fixed;pointerEvents=1;shape=mxgraph.aws4.vpn_connection;" vertex="1" parent="1">
          <mxGeometry x="910" y="386" width="90" height="100.29" as="geometry" />
        </mxCell>
        <mxCell id="-BmIKPM9cMF7o1BWzEVZ-20" style="edgeStyle=orthogonalEdgeStyle;rounded=0;orthogonalLoop=1;jettySize=auto;html=1;" edge="1" parent="1" source="-BmIKPM9cMF7o1BWzEVZ-18" target="-BmIKPM9cMF7o1BWzEVZ-17">
          <mxGeometry relative="1" as="geometry" />
        </mxCell>
        <mxCell id="-BmIKPM9cMF7o1BWzEVZ-18" value="" style="outlineConnect=0;dashed=0;verticalLabelPosition=bottom;verticalAlign=top;align=center;html=1;shape=mxgraph.aws3.customer_gateway;fillColor=#F58536;gradientColor=none;" vertex="1" parent="1">
          <mxGeometry x="1070" y="379" width="69" height="72" as="geometry" />
        </mxCell>
        <mxCell id="-BmIKPM9cMF7o1BWzEVZ-19" value="Corporate data center" style="points=[[0,0],[0.25,0],[0.5,0],[0.75,0],[1,0],[1,0.25],[1,0.5],[1,0.75],[1,1],[0.75,1],[0.5,1],[0.25,1],[0,1],[0,0.75],[0,0.5],[0,0.25]];outlineConnect=0;gradientColor=none;html=1;whiteSpace=wrap;fontSize=12;fontStyle=0;container=1;pointerEvents=0;collapsible=0;recursiveResize=0;shape=mxgraph.aws4.group;grIcon=mxgraph.aws4.group_corporate_data_center;strokeColor=#5A6C86;fillColor=none;verticalAlign=top;align=left;spacingLeft=30;fontColor=#5A6C86;dashed=0;" vertex="1" parent="1">
          <mxGeometry x="1100" y="350" width="130" height="130" as="geometry" />
        </mxCell>
        <mxCell id="-BmIKPM9cMF7o1BWzEVZ-22" style="edgeStyle=orthogonalEdgeStyle;rounded=0;orthogonalLoop=1;jettySize=auto;html=1;" edge="1" parent="1" source="-BmIKPM9cMF7o1BWzEVZ-2" target="-BmIKPM9cMF7o1BWzEVZ-17">
          <mxGeometry relative="1" as="geometry" />
        </mxCell>
      </root>
    </mxGraphModel>
  </diagram>
</mxfile>
